<svg width="32" height="32" viewBox="0 0 32 32" fill="none" xmlns="http://www.w3.org/2000/svg">
<circle cx="16" cy="16" r="14" stroke="black" stroke-width="2"/>
<path d="M22.8421 11.3158C22.8421 7.73684 20.1053 5 16.5263 5C12.9474 5 10.2105 7.73684 10.2105 11.3158C10.2105 13.2105 11.0526 14.8947 12.3158 16.1579C8.52632 17.4211 6 21 6 25C6 25.6316 6.42105 26.0526 7.05263 26.0526C7.68421 26.0526 8.10526 25.6316 8.10526 25C8.10526 21 11.4737 17.6316 15.4737 17.6316H16.5263C20.1053 17.6316 22.8421 14.8947 22.8421 11.3158ZM16.5263 15.5263C14.2105 15.5263 12.3158 13.6316 12.3158 11.3158C12.3158 9 14.2105 7.10526 16.5263 7.10526C18.8421 7.10526 20.7368 9 20.7368 11.3158C20.7368 13.6316 18.8421 15.5263 16.5263 15.5263ZM24.9474 18.6842H18.6316C18 18.6842 17.5789 19.1053 17.5789 19.7368C17.5789 20.3684 18 20.7895 18.6316 20.7895H24.9474C25.5789 20.7895 26 20.3684 26 19.7368C26 19.1053 25.5789 18.6842 24.9474 18.6842ZM24.9474 22.8947H18.6316C18 22.8947 17.5789 23.3158 17.5789 23.9474C17.5789 24.5789 18 25 18.6316 25H24.9474C25.5789 25 26 24.5789 26 23.9474C26 23.3158 25.5789 22.8947 24.9474 22.8947Z" fill="black"/>
</svg>
