<svg width="172" height="32" viewBox="0 0 172 32" fill="none" xmlns="http://www.w3.org/2000/svg">
<g clip-path="url(#clip0_158_949)">
<path d="M27.2711 9.92127C28.5274 11.5793 29.2727 13.6458 29.2727 15.8864C29.2727 21.3465 24.8464 25.7727 19.3864 25.7727C14.8519 25.7727 11.0304 22.7199 9.86506 18.5575C12.0901 16.9231 15.1313 15.108 18.5983 13.4171C20.8985 12.2952 23.1264 11.3546 25.1416 10.6304C26.2792 12.0925 26.962 13.9623 26.962 16C26.962 19.4371 25.0195 22.3965 22.2277 23.7272C25.495 22.8409 27.9091 19.7173 27.9091 16C27.9091 13.8268 27.084 11.8565 25.7457 10.4175C26.2189 10.2543 26.6787 10.1038 27.1236 9.96641L27.2711 9.92127ZM19.3864 21.0649C19.1264 21.0649 18.9156 21.2757 18.9156 21.5357C18.9156 21.7957 19.1264 22.0065 19.3864 22.0065C19.6464 22.0065 19.8571 21.7957 19.8571 21.5357C19.8571 21.2757 19.6464 21.0649 19.3864 21.0649ZM16.0909 19.1818C15.5709 19.1818 15.1493 19.6034 15.1493 20.1234C15.1493 20.6434 15.5709 21.0649 16.0909 21.0649C16.6109 21.0649 17.0325 20.6434 17.0325 20.1234C17.0325 19.6034 16.6109 19.1818 16.0909 19.1818ZM19.3864 6C21.9101 6 24.2129 6.94563 25.9599 8.50191C25.402 8.71244 24.8314 8.93502 24.2499 9.16916C23.6287 8.77315 22.9489 8.46847 22.2277 8.27283L22.2743 8.29525C22.8462 8.5725 23.382 8.91828 23.872 9.32259C21.8945 10.129 19.7967 11.0662 17.6456 12.1154C14.6531 13.5749 11.8949 15.0866 9.52091 16.5392C9.50714 16.3234 9.5 16.1057 9.5 15.8864C9.5 10.4263 13.9263 6 19.3864 6Z" fill="#222222"/>
<path d="M18.6422 13.0535C28.7045 8.12923 37.6018 5.66003 38.5149 7.53842C39.0473 8.63372 36.7473 10.9654 32.7421 13.6956C34.4023 12.1657 35.2055 10.8659 34.8184 10.0695C33.9054 8.19116 26.7154 9.82484 18.7591 13.7185C10.8029 17.6121 5.09325 22.2912 6.00631 24.1696C6.37173 24.9214 7.7425 25.1106 9.76539 24.8176C5.52869 26.1187 2.58105 26.4098 2.07602 25.3709C1.16296 23.4925 8.57989 17.9778 18.6422 13.0535Z" fill="#222222"/>
<path d="M72.4545 26L82.6189 26C86.1682 26 89.0454 23.1228 89.0454 19.5735C89.0454 15.9305 86.2743 12.8853 82.6474 12.5428L80.75 12.3636L80.3095 13.147L81.39 13.4991C83.5885 14.2153 84.9226 16.4426 84.5166 18.7188C84.1069 21.0162 82.1091 22.6892 79.7755 22.6892H74.4419L72.4545 26Z" fill="#222222"/>
<path d="M84.9547 6H74.7903C71.241 6 68.3638 8.87724 68.3638 12.4265C68.3638 16.0695 71.1349 19.1147 74.7618 19.4572L76.6592 19.6364L77.0997 18.853L76.0192 18.5009C73.8207 17.7847 72.4866 15.5574 72.8926 13.2812C73.3023 10.9838 75.3001 9.31075 77.6337 9.31075H82.9673L84.9547 6Z" fill="#222222"/>
<path d="M103.189 6C107.176 6 110.409 9.23265 110.409 13.2203C110.409 17.208 107.176 20.4406 103.189 20.4406H97.7495V26H93.1362V6H103.189ZM103.059 10.1987H97.7582V16.2825H103.059C104.739 16.2825 106.101 14.9206 106.101 13.2406C106.101 11.5606 104.739 10.1987 103.059 10.1987Z" fill="#222222"/>
<path d="M52.8559 26V11.03H44.7271V6H65.8634V10.9999H57.4509V26H52.8559Z" fill="#222222"/>
<path d="M109.045 26L118.101 6H123.357L132.227 26H127.265L120.636 10.5169L114.022 26H109.045Z" fill="#222222"/>
<path d="M116.773 25.7728L120.762 16.6819L124.727 25.7728H116.773Z" fill="#222222"/>
<path d="M167.909 13.9546H153.818V26H167.909V21.9791H158.024V17.8721H167.909V13.9546Z" fill="#222222"/>
<path d="M153.818 10.0909V6H167.909V10.0909H153.818Z" fill="#4737FF"/>
<path d="M142.444 6C145.234 6 147.758 7.14578 149.57 8.9931L146.422 12.1427C145.492 11.2963 144.257 10.7803 142.902 10.7803C140.012 10.7803 137.669 13.1255 137.669 16.0184C137.669 18.9113 140.012 21.2565 142.902 21.2565C144.393 21.2565 145.739 20.6318 146.692 19.6294L149.727 22.8434C147.905 24.7864 145.316 26 142.444 26C136.927 26 132.455 21.5228 132.455 16C132.455 10.4772 136.927 6 142.444 6Z" fill="#222222"/>
<path d="M35.1975 23.0299L33.1366 22.7045L35.1975 22.3791L35.5229 20.3181L35.8484 22.3791L37.9093 22.7045L35.8484 23.0299L35.5229 25.0908L35.1975 23.0299Z" fill="#222222"/>
</g>
<defs>
<clipPath id="clip0_158_949">
<rect width="165.909" height="20" fill="white" transform="translate(2 6)"/>
</clipPath>
</defs>
</svg>
